<?xml version="1.0" standalone="no"?>
<!DOCTYPE svg PUBLIC "-//W3C//DTD SVG 1.1//EN" "http://www.w3.org/Graphics/SVG/1.1/DTD/svg11.dtd" >
<svg xmlns="http://www.w3.org/2000/svg">
<metadata></metadata>
<defs>
<font id="neusaextrabold" horiz-adv-x="782" >
<font-face units-per-em="2048" ascent="1536" descent="-512" />
<missing-glyph horiz-adv-x="307" />
<glyph horiz-adv-x="2048" />
<glyph horiz-adv-x="2048" />
<glyph unicode="&#xd;" horiz-adv-x="2048" />
<glyph unicode=" "  horiz-adv-x="307" />
<glyph unicode="&#x09;" horiz-adv-x="307" />
<glyph unicode="&#xa0;" horiz-adv-x="307" />
<glyph unicode="!" horiz-adv-x="493" d="M102 0v285h289v-285h-289zM106 940v494h281v-492l-37 -510h-207z" />
<glyph unicode="&#x22;" horiz-adv-x="759" d="M49 1434h289l-45 -603h-199zM424 1434h289l-45 -603h-199z" />
<glyph unicode="#" horiz-adv-x="1384" d="M106 373l52 237h202l46 215h-195l51 238h195l80 373h237l-78 -373h162l78 373h240l-80 -373h202l-49 -238h-205l-45 -215h195l-51 -237h-195l-78 -373h-239l80 373h-162l-80 -373h-240l80 373h-203zM600 610h160l47 215h-162z" />
<glyph unicode="$" horiz-adv-x="923" d="M37 457h311q0 -162 111 -162q110 0 110 135q0 73 -39.5 101t-156.5 47q-42 7 -81 20.5t-83.5 44t-76.5 72t-53.5 109.5t-21.5 153q0 122 34 213.5t85.5 143t122.5 79.5v121h332v-117q106 -42 170.5 -150t64.5 -294l-307 -2q0 80 -23 123t-67 43q-88 0 -88 -140 q0 -34 10.5 -56t35.5 -34.5t46.5 -17.5t63.5 -12q98 -15 170 -57t110.5 -101.5t56 -123t17.5 -134.5q0 -188 -69.5 -298t-188.5 -151v-116h-332v114q-116 40 -188.5 149.5t-75.5 297.5z" />
<glyph unicode="%" horiz-adv-x="1513" d="M102 881v315q0 57 18.5 102.5t46.5 72.5t64 45t68 25t61 7q40 0 82 -13.5t83 -41t67 -79t26 -118.5v-315q0 -67 -26 -118.5t-67 -78.5t-82.5 -40.5t-82.5 -14.5q-29 0 -61 7t-68 25t-64 45t-46.5 72.5t-18.5 102.5zM295 872q0 -31 20.5 -46t42.5 -15q24 0 44 15t20 46 v332q0 31 -20 46.5t-44 15.5q-22 0 -42.5 -15t-20.5 -47v-332zM350 0l596 1434h215l-596 -1434h-215zM895 238v315q0 57 18.5 102.5t46.5 72.5t64 45t68 25t61 7q40 0 82 -13.5t83 -41t67 -79t26 -118.5v-315q0 -67 -26 -118.5t-67 -78.5t-82.5 -40.5t-82.5 -14.5 q-29 0 -61 7t-68 25t-64 45t-46.5 72.5t-18.5 102.5zM1090 229q0 -31 20.5 -46t42.5 -15q24 0 44 15t20 46v332q0 31 -20 46.5t-44 15.5q-22 0 -42.5 -15t-20.5 -47v-332z" />
<glyph unicode="&#x26;" horiz-adv-x="1107" d="M43 436v13q0 96 35.5 171t87.5 101q-49 27 -85 101t-36 169v13q5 446 459 446h78v-311h-78q-127 0 -127 -131v-9q0 -55 32 -90t99 -35h164v228h321v-228h68v-305h-68v-106q0 -113 -24.5 -198t-65.5 -138t-102 -85.5t-126.5 -45t-146.5 -12.5h-14q-466 4 -471 452z M375 428q0 -53 35.5 -93t111.5 -40h10q81 1 111.5 43t30.5 133v96h-164q-132 0 -135 -127v-12z" />
<glyph unicode="'" horiz-adv-x="491" d="M102 1434h289l-45 -603h-199z" />
<glyph unicode="(" horiz-adv-x="681" d="M102 88v1075q0 177 101 275t270 98h105v-311h-43q-43 0 -74 -32.5t-31 -82.5v-969q0 -50 31 -82t74 -32h43v-312h-105q-169 0 -270 98t-101 275z" />
<glyph unicode=")" horiz-adv-x="681" d="M102 27h43q43 0 74 32t31 82v969q0 50 -31 82.5t-74 32.5h-43v311h105q169 0 270 -98t101 -275v-1075q0 -177 -101 -275t-270 -98h-105v312z" />
<glyph unicode="*" horiz-adv-x="1038" d="M76 1036l88 275l233 -92l-16 249h291l-17 -249l232 92l90 -275l-244 -61l160 -193l-234 -168l-133 211l-133 -211l-233 168l159 193z" />
<glyph unicode="+" horiz-adv-x="1179" d="M102 383v313h322v324h334v-324h321v-313h-321v-322h-332v322h-324z" />
<glyph unicode="," horiz-adv-x="493" d="M102 0v285h289v-285l-102 -293h-113l49 293h-123z" />
<glyph unicode="-" horiz-adv-x="712" d="M102 391v314h508v-314h-508z" />
<glyph unicode="." horiz-adv-x="493" d="M102 0v285h289v-285h-289z" />
<glyph unicode="/" horiz-adv-x="868" d="M33 0l467 1434h338l-467 -1434h-338z" />
<glyph unicode="0" horiz-adv-x="946" d="M49 399q0 -171 123 -293t295 -122t294 121.5t122 293.5v635q0 172 -122 295t-294 123t-295 -123t-123 -295v-635zM381 399v635q0 35 25.5 60.5t60.5 25.5t60.5 -25.5t25.5 -60.5v-635q0 -35 -25.5 -60.5t-60.5 -25.5t-60.5 25.5t-25.5 60.5z" />
<glyph unicode="1" horiz-adv-x="534" d="M27 1104h125v-1104h331v1436h-456v-332z" />
<glyph unicode="2" horiz-adv-x="907" d="M35 0h829v311h-461q9 22 20 41.5t29.5 41.5t27.5 32t38.5 38.5t36.5 35.5q65 64 99.5 100.5t82.5 95t71.5 105t41.5 108.5t18 127q0 172 -122 295t-293 123q-172 0 -295 -123t-123 -295v-67h332v67q0 35 25.5 60.5t60.5 25.5t60.5 -25.5t25.5 -60.5q0 -54 -45 -115 t-172 -188q-151 -151 -219 -284.5t-68 -282.5v-166z" />
<glyph unicode="3" horiz-adv-x="903" d="M29 399v68h331v-68q0 -35 25.5 -60.5t60.5 -25.5q33 0 60 27q24 24 24 59v82q0 35 -24.5 59.5t-59.5 24.5h-135v301h158q27 8 44 30.5t17 51.5v86q0 39 -24 60q-26 26 -60 26q-35 0 -60.5 -25.5t-25.5 -60.5v-67h-331v67q0 172 122 295t295 123q170 0 293 -123 q123 -120 123 -295v-65q0 -75 -32.5 -148t-84.5 -104q52 -31 84.5 -103.5t32.5 -148.5v-66q0 -172 -123 -295q-120 -120 -293 -120t-295 121.5t-122 293.5z" />
<glyph unicode="4" horiz-adv-x="991" d="M23 197v262l233 977h326l-217 -908h190v498h322v-498h81v-331h-81v-197h-322v197h-532z" />
<glyph unicode="5" horiz-adv-x="903" d="M31 399v68h329v-68q0 -35 25.5 -60.5t60.5 -25.5q36 0 60 27q26 26 26 59v133q0 35 -25.5 59.5t-60.5 24.5h-415v818h757v-318h-428v-168h86q172 0 295 -122t123 -294v-133q0 -169 -123 -295q-123 -120 -295 -120t-293.5 121.5t-121.5 293.5z" />
<glyph unicode="6" horiz-adv-x="919" d="M59 399v635q0 172 123 295t295 123t294 -123t122 -295v-41h-332v41q0 35 -24.5 60.5t-59.5 25.5t-60.5 -25.5t-25.5 -60.5v-141q37 17 64 25q81 21 162 -8.5t141 -90t97.5 -144.5t37.5 -169v-107q0 -172 -122 -293.5t-294 -121.5t-295 122t-123 293zM391 399 q0 -35 25.5 -60.5t60.5 -25.5t59.5 25.5t24.5 60.5v107q0 35 -24.5 60.5t-59.5 25.5t-60.5 -25.5t-25.5 -60.5v-107z" />
<glyph unicode="7" horiz-adv-x="894" d="M41 1116v318h817v-254l-338 -1180h-344l320 1116h-455z" />
<glyph unicode="8" horiz-adv-x="923" d="M45 399v68q2 75 34.5 147t84.5 103q-52 31 -84.5 103t-34.5 147v67q0 172 123 295t295 123q169 0 295 -123q121 -121 121 -295v-65q0 -75 -32.5 -148t-84.5 -104q52 -31 84.5 -103.5t32.5 -148.5v-66q0 -171 -121 -295q-123 -120 -295 -120t-295 122t-123 293zM377 399 q0 -35 25.5 -60.5t60.5 -25.5t59.5 25.5t24.5 60.5v82q0 35 -24.5 59.5t-59.5 24.5t-60.5 -24.5t-25.5 -59.5v-82zM377 952q0 -34 25.5 -59t60.5 -25t59.5 25t24.5 59v82q0 35 -24.5 60.5t-59.5 25.5t-60.5 -25.5t-25.5 -60.5v-82z" />
<glyph unicode="9" horiz-adv-x="917" d="M45 399v41h334v-41q0 -35 24.5 -60.5t59.5 -25.5t60.5 25.5t25.5 60.5v142q-37 -17 -64 -25q-81 -21 -162.5 8.5t-141.5 90t-98 144.5t-38 169v106q0 172 123 295t295 123t295 -123t123 -295v-635q0 -171 -123 -293t-295 -122t-295 122t-123 293zM379 928 q0 -35 24.5 -60.5t59.5 -25.5t60.5 25.5t25.5 60.5v106q0 35 -25.5 60.5t-60.5 25.5t-59.5 -25.5t-24.5 -60.5v-106z" />
<glyph unicode=":" horiz-adv-x="493" d="M102 0v285h289v-285h-289zM102 698v285h289v-285h-289z" />
<glyph unicode=";" horiz-adv-x="493" d="M102 0v285h289v-285l-102 -293h-113l49 293h-123zM102 698v285h289v-285h-289z" />
<glyph unicode="&#x3c;" horiz-adv-x="1144" d="M102 528v86l942 430v-313l-372 -160l372 -159v-314z" />
<glyph unicode="=" horiz-adv-x="1181" d="M102 174v313h977v-313h-977zM102 565v314h977v-314h-977z" />
<glyph unicode="&#x3e;" horiz-adv-x="1144" d="M102 100v314l373 159l-373 160v316l940 -433v-86z" />
<glyph unicode="?" horiz-adv-x="1050" d="M102 954v11q2 103 27.5 184.5t65 134t93 88t109.5 50.5t117 16l12 -2q62 0 119.5 -14t113 -47.5t96.5 -83t66 -127t25 -173.5v-4q0 -81 -19 -141.5t-49 -96.5t-66 -63t-72 -49t-65.5 -47.5t-48 -66t-18.5 -95.5h-266q0 87 15 153t39.5 105t53.5 68t58 50.5t53.5 43.5 t39.5 55.5t15 79.5q0 61 -23.5 102t-66.5 41h-6q-78 -6 -88 -172h-330zM332 -2v285h289v-285h-289z" />
<glyph unicode="@" horiz-adv-x="1771" d="M104 537q-1 195 34.5 346t101 253t164.5 167.5t218 94t267 27.5q137 -1 247.5 -20t191 -53t141.5 -85.5t99.5 -111.5t62 -138t33 -158t9.5 -177v-352q0 -151 -88.5 -246.5t-263.5 -95.5q-195 -3 -293 102q-68 -102 -213 -102q-49 0 -92.5 18.5t-83 58t-63 112.5 t-23.5 171v338q0 98 23.5 171t63 113t83 58.5t92.5 18.5q130 0 201 -89l37 70h184v-696q0 -48 18 -74.5t62 -26.5q45 0 65.5 26.5t20.5 84.5v367q0 78 -7 135.5t-26 114.5t-55 96t-91 70t-137 46t-190 15q-108 1 -185.5 -13.5t-146 -56t-109.5 -113t-64.5 -187t-22.5 -277.5 q0 -343 119.5 -500.5t359.5 -157.5h285v-241l-287 -2q-742 0 -742 899zM819 481q2 -153 16 -203.5t60 -50.5q44 0 58 51.5t12 202.5v68q0 149 -15 201.5t-57 52.5q-44 0 -59 -51.5t-15 -202.5v-68z" />
<glyph unicode="A" horiz-adv-x="1024" d="M47 0l260 1434h412l262 -1434h-322l-45 279h-198l-47 -279h-322zM449 600h129l-64 475z" />
<glyph unicode="B" horiz-adv-x="913" d="M59 0v1434h387q78 0 148.5 -19t130.5 -57.5t95.5 -106t35.5 -155.5v-92q0 -177 -139 -265q81 -43 124.5 -119.5t43.5 -179.5v-78q0 -174 -115 -268t-315 -94h-396zM379 309h65q50 0 81.5 32.5t31.5 96.5v15q0 64 -30.5 96.5t-82.5 32.5h-65v-273zM381 874h61 q44 0 73.5 29t29.5 88v15q0 58 -29.5 86t-73.5 28h-61v-246z" />
<glyph unicode="C" horiz-adv-x="921" d="M53 956q0 110 24.5 197t64.5 142t96 91t114 51t123 15q63 0 119.5 -14t111 -49.5t94.5 -89.5t64 -139.5t25 -194.5v-47h-322v38q-3 187 -92 187q-50 0 -71 -48.5t-21 -148.5v-452q0 -101 21 -150t71 -49q88 0 94 186v41h322v-49q-1 -109 -25 -195t-64 -140.5t-94.5 -89.5 t-111 -49.5t-119.5 -14.5q-82 0 -153.5 25t-133.5 79.5t-98.5 154.5t-36.5 236z" />
<glyph unicode="D" horiz-adv-x="933" d="M59 0v1434h404q65 0 121 -13t112 -47.5t95 -88.5t63.5 -143t24.5 -204v-442q0 -115 -24.5 -204t-63.5 -143t-95 -88.5t-112 -47.5t-121 -13h-404zM379 311h84q94 0 94 199v416q0 196 -94 196h-84v-811z" />
<glyph unicode="E" horiz-adv-x="708" d="M59 0v1434h621v-312l-299 -2v-243h278v-312h-278v-254h299v-311h-621z" />
<glyph unicode="F" horiz-adv-x="690" d="M57 0v1434h602v-312h-280v-268h260v-311h-260v-543h-322z" />
<glyph unicode="G" horiz-adv-x="931" d="M55 479v482q0 110 23.5 196.5t63 141.5t93.5 91.5t111.5 51t122.5 14.5q63 0 119.5 -14.5t110 -50.5t92 -90.5t62 -141t24.5 -196.5v-23h-312v12q-3 191 -94 191q-50 0 -71 -48.5t-21 -148.5v-452q0 -101 21 -150t71 -49q94 0 94 184v43h-98v312h412v-355 q0 -110 -23.5 -197t-62.5 -142t-93 -91t-111 -50.5t-120 -14.5q-65 0 -122.5 14.5t-111.5 51t-93.5 91.5t-63 141.5t-23.5 196.5z" />
<glyph unicode="H" horiz-adv-x="933" d="M59 0v1434h322v-557h174v557h322v-1434h-322v565h-174v-565h-322z" />
<glyph unicode="I" horiz-adv-x="448" d="M59 0v1434h332v-1434h-332z" />
<glyph unicode="J" horiz-adv-x="649" d="M43 -16v311h78q149 3 149 199v940h320v-955q0 -109 -24 -195.5t-63 -141.5t-93 -91t-110 -51t-118 -16h-139z" />
<glyph unicode="K" horiz-adv-x="1019" d="M59 -2v1434h332v-543l195 545h360l-264 -711l295 -723l-371 -2l-215 569v-569h-332z" />
<glyph unicode="L" horiz-adv-x="704" d="M57 0v1434h322v-1123h280v-311h-602z" />
<glyph unicode="M" horiz-adv-x="1265" d="M55 0v1434h398l178 -746l178 746h401v-1434h-311v696l-170 -696h-192l-170 696v-696h-312z" />
<glyph unicode="N" horiz-adv-x="1015" d="M55 0v1434h316l280 -695v695h312v-1434h-316l-280 694v-694h-312z" />
<glyph unicode="O" horiz-adv-x="952" d="M53 479v477q0 110 24.5 197t64.5 142t96 91t114 51t123 15q64 0 122 -14.5t114 -50.5t97 -91t66 -142.5t25 -197.5v-477q0 -110 -25 -197t-66 -142t-97 -91t-114 -50.5t-122 -14.5q-82 0 -153.5 25t-133.5 79.5t-98.5 154.5t-36.5 236zM385 494q0 -101 21 -150t71 -49 q94 0 94 199v452q0 197 -94 197q-50 0 -71 -48.5t-21 -148.5v-452z" />
<glyph unicode="P" horiz-adv-x="917" d="M59 0v1434h336q71 0 135.5 -11.5t127.5 -41t108.5 -74t73.5 -116.5t28 -163v-100q0 -104 -36.5 -182.5t-99.5 -124.5t-135.5 -69.5t-156.5 -29.5h-59v-522h-322zM383 831h63q45 0 77 33.5t32 104.5v16q0 71 -31.5 104t-77.5 33h-63v-291z" />
<glyph unicode="Q" horiz-adv-x="1009" d="M55 481v477q0 110 23.5 197t63 142t93.5 91t111.5 51t122.5 15q64 0 121 -14.5t112 -50.5t94.5 -91t64 -142.5t24.5 -197.5v-477q0 -91 -21 -184h90l2 -309h-444q-14 -2 -43 -2q-65 0 -122.5 14.5t-111.5 51t-93.5 91.5t-63 141.5t-23.5 196.5zM375 496q0 -101 21 -150 t71 -49h12q84 12 84 197v452q0 197 -94 197q-50 0 -71 -48.5t-21 -148.5z" />
<glyph unicode="R" horiz-adv-x="944" d="M59 0v1434l336 2q71 0 135.5 -11.5t127.5 -41t108.5 -74.5t73.5 -117t28 -164v-96q0 -201 -145 -303l178 -629h-338l-123 524h-59v-524h-322zM379 838h67q45 0 77 33t32 104v14q0 71 -31.5 104t-77.5 33h-67v-288z" />
<glyph unicode="S" horiz-adv-x="923" d="M35 457l313 -2q0 -162 111 -162q110 0 110 133q0 75 -39.5 103.5t-156.5 48.5q-42 7 -81 20.5t-83.5 44t-76.5 72.5t-53.5 110.5t-21.5 153.5q0 104 23.5 187t62 135.5t92.5 87t111 49t121 14.5q62 0 117 -13.5t108 -48t90.5 -87t60.5 -136.5t23 -192h-309q0 80 -23 123 t-67 43q-88 0 -88 -140q0 -35 10.5 -57.5t35.5 -35t46.5 -17.5t63.5 -12q79 -12 141.5 -42.5t101.5 -71t65 -92.5t36 -103.5t10 -108.5q0 -106 -23.5 -189.5t-63.5 -137t-96 -88.5t-117 -49.5t-132 -14.5q-67 0 -125.5 14.5t-113.5 49t-94.5 87.5t-63.5 136t-25 188z" />
<glyph unicode="T" horiz-adv-x="843" d="M45 1122v312h756v-312h-217v-1122h-322v1122h-217z" />
<glyph unicode="U" horiz-adv-x="940" d="M57 461q0 -110 24 -195t62.5 -137.5t93.5 -86.5t112 -47t122 -13q64 0 120.5 13t112 46.5t95 86t64 138t24.5 195.5v973h-322v-959q0 -96 -22 -138t-72 -42q-51 0 -71.5 41t-20.5 139v959h-322v-973z" />
<glyph unicode="V" horiz-adv-x="1028" d="M45 1434h324l145 -924l145 924h326l-260 -1434h-420z" />
<glyph unicode="W" horiz-adv-x="1550" d="M43 1434h324l133 -906l125 906h299l125 -906l133 906h323l-245 -1434h-381l-105 643l-104 -643h-381z" />
<glyph unicode="X" horiz-adv-x="1052" d="M45 0l264 737l-246 697h334l131 -408l131 408h334l-254 -695l269 -739h-332l-148 428l-151 -428h-332z" />
<glyph unicode="Y" horiz-adv-x="1071" d="M43 1434h334l158 -523l159 523h332l-326 -891v-543h-331v543z" />
<glyph unicode="Z" horiz-adv-x="894" d="M35 -2v258l473 864h-457v312h801v-265l-469 -856l475 -2v-311h-823z" />
<glyph unicode="[" horiz-adv-x="667" d="M102 -287v1823h463v-311l-133 -2v-1196h133v-314h-463z" />
<glyph unicode="\" horiz-adv-x="868" d="M33 1434h340l465 -1434h-338z" />
<glyph unicode="]" horiz-adv-x="667" d="M102 29h134v1196h-134v311l463 2v-1823h-463v314z" />
<glyph unicode="^" horiz-adv-x="909" d="M102 987l353 443l352 -443h-227l-125 148l-125 -148h-228z" />
<glyph unicode="_" horiz-adv-x="1052" d="M102 -2h848v-311h-848v311z" />
<glyph unicode="`" horiz-adv-x="647" d="M121 1475h293l112 -351h-207z" />
<glyph unicode="a" d="M47 344v338q0 98 23.5 171t63 112.5t83 58t92.5 18.5q131 0 201 -88l37 70l184 -2v-1024h-184l-35 76q-69 -90 -203 -90q-49 0 -92.5 18.5t-83 58t-63 112.5t-23.5 171zM315 477q2 -153 16 -203.5t60 -50.5h2q43 0 56 51q12 45 12 167v36v68q0 149 -15 201.5t-57 52.5 q-44 0 -59 -51.5t-15 -202.5v-68z" />
<glyph unicode="b" d="M53 0v1434h269l-3 -449q63 57 164 57q48 0 91 -18.5t81 -58t60 -112.5t22 -171v-338q0 -98 -22 -171t-60 -112.5t-81 -58t-91 -18.5q-136 0 -209 94l-36 -78h-185zM322 442q0 -120 12 -166q14 -51 55 -51h2q46 0 60 50.5t16 203.5v68q0 151 -15 202.5t-59 51.5 q-28 0 -43 -22t-21.5 -76t-6.5 -156v-68v-37z" />
<glyph unicode="c" horiz-adv-x="765" d="M47 344l2 344q0 98 30.5 171t81.5 113t108 58.5t120 18.5t119 -18.5t106 -57.5t80 -112t31 -171v-57h-262q-1 95 -19 132.5t-55 37.5q-44 0 -58 -51t-14 -203v-68q2 -155 15 -204.5t59 -49.5q39 0 55.5 37t16.5 133h260v-55q-1 -98 -31 -170.5t-80 -112t-106 -57.5 t-119 -18q-49 0 -95.5 11t-91.5 37.5t-78.5 66t-54 103t-20.5 142.5z" />
<glyph unicode="d" d="M45 344v338q0 98 22 171t60 112.5t81 58t91 18.5q101 0 164 -57v449h266v-1434h-184l-37 78q-73 -94 -209 -94q-48 0 -91 18.5t-81 58t-60 112.5t-22 171zM313 479q2 -153 16 -203.5t60 -50.5h2q43 0 56 51q12 45 12 167v36v68q0 149 -15 201.5t-57 52.5q-44 0 -59 -51.5 t-15 -202.5v-68z" />
<glyph unicode="e" horiz-adv-x="774" d="M47 344l2 340q0 79 20.5 142.5t54 103t78.5 66t91.5 37.5t95.5 11q63 0 120 -18t108.5 -57.5t82.5 -112.5t31 -172v-262h-414v-33q0 -92 16.5 -127t57.5 -35q34 0 51.5 26t18.5 89h268q0 -98 -31 -170.5t-82.5 -112t-108.5 -57.5t-120 -18q-49 0 -95.5 11t-91.5 37.5 t-78.5 66t-54 103t-20.5 142.5zM317 618h146v39q-1 79 -19.5 111.5t-52.5 32.5q-37 0 -55 -31.5t-19 -112.5v-39z" />
<glyph unicode="f" horiz-adv-x="587" d="M45 782v242h98v68q0 101 24 174t66.5 112t92.5 56.5t112 17.5l105 -2v-242h-31q-59 0 -78.5 -34t-21.5 -127v-23h131v-242h-131v-782h-269v782h-98z" />
<glyph unicode="g" horiz-adv-x="784" d="M47 360v320q0 98 22 171t60 112.5t81 58t91 18.5q136 0 209 -94l37 78h186v-1018q0 -79 -20.5 -142.5t-54 -103t-78.5 -66t-91.5 -37.5t-95.5 -11q-56 0 -108.5 15t-101 46.5t-82.5 89t-44 135.5h273q15 -41 63 -41q38 0 55 28t17 101v37q-63 -57 -164 -57 q-48 0 -91 18.5t-81 58t-60 112.5t-22 171zM313 479q0 -151 15 -202.5t59 -51.5q43 0 58.5 52t15.5 202l-2 66v34q0 122 -13 168q-15 52 -59 52q-45 0 -58.5 -50.5t-15.5 -203.5v-66z" />
<glyph unicode="h" horiz-adv-x="786" d="M55 0v1434h269l-2 -453q64 61 163 61q48 0 91 -18.5t81 -58t60 -112.5t22 -171v-682h-268v547q0 151 -15 202.5t-59 51.5q-39 0 -56 -38.5t-17 -139.5v-623h-269z" />
<glyph unicode="i" horiz-adv-x="397" d="M55 1149v264h289v-264h-289zM66 2v1024h270v-1024h-270z" />
<glyph unicode="j" horiz-adv-x="514" d="M53 -113h29q64 1 83 41q17 37 17 130v20v946h271v-1016q0 -102 -24 -175t-66.5 -112.5t-92.5 -57t-112 -17.5h-105v241zM172 1149v262h289v-262h-289z" />
<glyph unicode="k" d="M53 0v1434h271v-762l131 352h276l-168 -498l180 -526h-276l-143 385v-385h-271z" />
<glyph unicode="l" horiz-adv-x="370" d="M55 0v1434h271v-1434h-271z" />
<glyph unicode="m" horiz-adv-x="1198" d="M53 0v1024h185l43 -80q75 96 202 96q131 0 195 -114q73 114 217 114q48 0 91 -18.5t81 -58t60 -112.5t22 -171v-682h-268v547q0 151 -15 202.5t-59 51.5q-34 0 -51.5 -26t-20.5 -91v-682h-268v547q0 151 -15 202.5t-59 51.5q-37 0 -54 -34t-17 -120v-647h-269z" />
<glyph unicode="n" horiz-adv-x="784" d="M53 0v1024h185l38 -78q75 96 207 96q48 0 91 -18.5t81 -58t60 -112.5t22 -171v-682h-268v547q0 151 -15 202.5t-59 51.5q-39 0 -56 -38.5t-17 -139.5v-623h-269z" />
<glyph unicode="o" horiz-adv-x="776" d="M47 344v338q0 79 20.5 142.5t54 103t78.5 66t91.5 37.5t95.5 11q63 0 120 -18t108.5 -57.5t82.5 -112.5t31 -172v-338q0 -99 -31 -172t-82.5 -112.5t-108.5 -57.5t-120 -18q-49 0 -95.5 11t-91.5 37.5t-78.5 66t-54 103t-20.5 142.5zM315 479q2 -155 15 -204.5t59 -49.5 q44 0 59 52q13 46 13 168v34v68q0 148 -16 201t-58 53q-44 0 -58 -51t-14 -203v-68z" />
<glyph unicode="p" horiz-adv-x="784" d="M53 -334v1360h185l38 -80q73 94 209 94q48 0 91 -18.5t81 -58t60 -112.5t22 -171v-338q0 -98 -22 -171t-60 -112.5t-81 -58t-91 -18.5q-100 0 -163 57v-373h-269zM326 477q0 -102 6.5 -156t21.5 -76t43 -22q44 0 59 51.5t15 202.5v68q-2 153 -16 203.5t-60 50.5 q-44 0 -57 -51q-12 -45 -12 -166v-37v-68z" />
<glyph unicode="q" d="M47 344v338q0 98 22 171t60 112.5t81 58t91 18.5q136 0 209 -94l37 78l186 2v-1360h-268v373q-63 -57 -164 -57q-48 0 -91 18.5t-81 58t-60 112.5t-22 171zM317 481q0 -151 15 -202.5t59 -51.5q42 0 57 52.5t15 201.5v68v36q0 121 -12 167q-14 51 -58 51q-46 0 -60 -50.5 t-16 -203.5v-68z" />
<glyph unicode="r" horiz-adv-x="579" d="M53 0v1024h185l47 -106q101 122 256 122v-241q-112 0 -165 -55t-54 -191v-553h-269z" />
<glyph unicode="s" horiz-adv-x="739" d="M33 293v35h268l2 -29q1 -35 21.5 -53.5t50.5 -18.5q33 0 52 18t19 52q0 68 -34.5 95t-114.5 38q-109 13 -181.5 89t-72.5 202q0 161 90.5 242t237.5 81q140 0 234 -82t95 -225v-18h-268v12q-1 36 -18 54t-41 18q-28 0 -45 -16t-17 -48q3 -69 80 -84q77 -13 135.5 -38.5 t94 -57t57 -73.5t29.5 -83t8 -90q0 -164 -92.5 -246.5t-247.5 -82.5q-88 0 -164.5 34.5t-126.5 106.5t-51 168z" />
<glyph unicode="t" horiz-adv-x="587" d="M45 782v242h98v313h269v-313h131v-242h-131v-362q0 -112 19 -153t83 -42h29v-241h-105q-62 0 -112 17t-92.5 56.5t-66.5 112.5t-24 176v436h-98z" />
<glyph unicode="u" horiz-adv-x="780" d="M49 342v682h268v-547q0 -151 15 -202.5t59 -51.5q40 0 57 38.5t17 139.5v623h270v-1024h-184l-41 78q-75 -96 -207 -96q-48 0 -91 18.5t-81 58t-60 112.5t-22 171z" />
<glyph unicode="v" horiz-adv-x="874" d="M39 1024h270l129 -608l129 608h269l-242 -1022h-311z" />
<glyph unicode="w" horiz-adv-x="1243" d="M39 1024h270l97 -670l104 670h225l105 -670l96 670h268l-180 -1024h-328l-75 496l-74 -496h-328z" />
<glyph unicode="x" horiz-adv-x="856" d="M41 0l176 524l-164 500h277l100 -360l100 360h277l-164 -498l176 -526h-276l-113 309l-113 -309h-276z" />
<glyph unicode="y" horiz-adv-x="763" d="M41 362v664h268v-528q0 -151 15 -202.5t59 -51.5q28 0 43.5 22t22.5 76t8 156v528h268v-1022q0 -97 -30.5 -168.5t-81.5 -110.5t-108 -57t-120 -18q-44 0 -86.5 9t-84.5 30t-75 53t-57.5 82t-32.5 113h273q15 -41 63 -41q38 0 56 28t18 99v36q-63 -57 -164 -57 q-48 0 -91 18.5t-81 58t-60 112.5t-22 171z" />
<glyph unicode="z" horiz-adv-x="702" d="M41 2v197l326 585h-301v242h589v-199l-319 -585l330 2v-242h-625z" />
<glyph unicode="{" horiz-adv-x="854" d="M100 485v312h11q48 2 73 7.5t47 26t31 60.5t12 110v162q4 178 104.5 275.5t268.5 97.5l101 -4v-311h-43q-43 0 -74 -32.5t-31 -82.5v-160q0 -277 -190 -307q190 -30 190 -266v-232q0 -50 31 -82t74 -32h43v-312h-105q-168 0 -268.5 97.5t-104.5 275.5v184q-2 58 -9 96 t-17 60.5t-31.5 34.5t-42.5 16t-59 6h-11z" />
<glyph unicode="|" horiz-adv-x="534" d="M102 -123v1557h332v-1557h-332z" />
<glyph unicode="}" horiz-adv-x="854" d="M102 31h43q43 0 74 32t31 82v232q0 236 190 266q-190 30 -190 307v160q0 50 -31 82.5t-74 32.5h-43v311l103 2q168 0 268.5 -97.5t104.5 -275.5v-166q2 -55 9 -90.5t17 -57t31.5 -32.5t43 -15t60.5 -5h11v-312h-11q-38 -1 -59 -5t-42.5 -15.5t-32 -35t-18 -62t-9.5 -97.5 v-180q-3 -177 -103 -275t-268 -98h-105v312z" />
<glyph unicode="~" horiz-adv-x="1091" d="M106 434q0 80 15 149t45 124t81 86.5t118 31.5q32 0 63 -7.5t51.5 -16t79.5 -33.5q94 -46 143 -39q28 4 43 27.5t15 60.5h233q0 -80 -14.5 -147.5t-44 -122.5t-79.5 -86t-116 -31q-22 0 -39.5 2t-40 10t-34.5 13t-46 20.5t-51 22.5q-75 32 -122 24q-33 -5 -51.5 -29 t-18.5 -63z" />
<glyph unicode="&#xa1;" horiz-adv-x="493" d="M102 815v285h289v-285h-289zM106 162l37 508h207l37 -510v-492h-281v494z" />
<glyph unicode="&#xa2;" horiz-adv-x="768" d="M47 344v338q0 139 57.5 221.5t149.5 114.5v213l272 2v-215q198 -71 201 -330v-57h-262q-1 95 -19 132.5t-55 37.5q-44 0 -58 -51t-14 -203v-68q2 -155 15 -204.5t59 -49.5q39 0 55.5 37t16.5 133h260v-55q-3 -259 -201 -330v-209h-270v207q-92 32 -149.5 114.5 t-57.5 221.5z" />
<glyph unicode="&#xa3;" horiz-adv-x="1034" d="M51 0v313h92v209h-92v314h92v122q0 135 36.5 235t98.5 154.5t133.5 79.5t153.5 25q63 0 120.5 -14t113.5 -49.5t96.5 -90t65.5 -140.5t26 -195v-17l-330 4v6q-3 187 -92 187q-50 0 -71 -48.5t-21 -148.5v-110h246v-314h-246v-209h463v-313h-885z" />
<glyph unicode="&#xa4;" horiz-adv-x="1228" />
<glyph unicode="&#xa5;" horiz-adv-x="1105" d="M49 1434h334l172 -516l172 516h332l-176 -437h157v-313h-268l-18 -37l-9 -29h295v-313h-321v-307h-332v307h-321v313h294l-8 29l-16 37h-268v313h157z" />
<glyph unicode="&#xa6;" horiz-adv-x="536" d="M102 -123v655h332v-655h-332zM102 778v656h332v-656h-332z" />
<glyph unicode="&#xa7;" horiz-adv-x="827" d="M31 166v39h303l-6 -31q1 -39 24 -60.5t54 -21.5q36 0 57.5 19.5t21.5 56.5q0 78 -39.5 107.5t-128.5 41.5q-121 14 -200.5 98.5t-79.5 225.5q0 137 69 225q-67 83 -67 207q0 180 102 271.5t265 91.5q158 0 263 -92.5t105 -253.5v-21h-301v12q-1 40 -20.5 60t-46.5 20 q-29 0 -47.5 -17t-18.5 -52q0 -78 88 -95q105 -17 178 -54t112.5 -89.5t56 -110t16.5 -127.5q0 -131 -58 -217q60 -88 60 -215q0 -182 -103.5 -274t-277.5 -92q-98 0 -183 38.5t-141.5 119.5t-56.5 190zM319 659q0 -14 3 -25t10.5 -20t12.5 -14.5t18.5 -11.5l18 -8t21 -7 t17.5 -6q36 -11 59 -26q33 23 33 75q0 45 -25.5 69t-70.5 38q-4 1 -20 6t-25 8l2 -2q-54 -17 -54 -76z" />
<glyph unicode="&#xa8;" horiz-adv-x="829" d="M115 1174v260h264v-260h-264zM461 1174v260h264v-260h-264z" />
<glyph unicode="&#xa9;" horiz-adv-x="1290" d="M98 881q0 149 73 276.5t199.5 202t276.5 74.5q149 0 275.5 -74.5t200 -202t73.5 -276.5t-73.5 -276t-200 -201t-275.5 -74q-150 0 -276.5 74t-199.5 201t-73 276zM279 881q0 -158 102.5 -268.5t265.5 -110.5t267 110.5t104 268.5t-104 269.5t-267 111.5t-265.5 -111.5 t-102.5 -269.5zM449 969q0 59 17.5 103t46.5 67.5t61.5 35t68.5 11.5q78 0 134 -47.5t59 -153.5v-29h-144q-3 55 -15 76t-36 21q-28 0 -37.5 -32t-9.5 -126v-14q0 -93 10.5 -125.5t40.5 -32.5q25 0 36.5 21t14.5 77h142v-28q-3 -106 -59 -153.5t-134 -47.5q-36 0 -68.5 11 t-62 34.5t-46.5 68t-17 103.5z" />
<glyph unicode="&#xaa;" d="M47 344v338q0 98 23.5 171t63 112.5t83 58t92.5 18.5q131 0 201 -88l37 70l184 -2v-1024h-184l-35 76q-69 -90 -203 -90q-49 0 -92.5 18.5t-83 58t-63 112.5t-23.5 171zM315 477q2 -153 16 -203.5t60 -50.5q44 0 58 51.5t12 202.5v68q0 149 -15 201.5t-57 52.5 q-44 0 -59 -51.5t-15 -202.5v-68z" />
<glyph unicode="&#xab;" horiz-adv-x="931" d="M102 375v315l330 301v-315l-160 -144l160 -141v-315zM500 375v315l329 301v-315l-159 -144l159 -141v-315z" />
<glyph unicode="&#xac;" horiz-adv-x="1181" d="M102 532v314h979v-516h-331v202h-648z" />
<glyph unicode="&#xad;" horiz-adv-x="712" d="M102 391v314h508v-314h-508z" />
<glyph unicode="&#xae;" horiz-adv-x="1290" d="M94 862q0 149 73.5 276t200.5 201t277 74t277 -74t200.5 -201t73.5 -276t-73.5 -276t-200.5 -201t-277 -74t-277 74t-200.5 201t-73.5 276zM274 860q0 -158 104 -268.5t267 -110.5t267 110.5t104 268.5t-104 269.5t-267 111.5t-267 -111.5t-104 -269.5zM463 580v575h184 q96 0 146.5 -47t50.5 -119v-35q0 -82 -70 -127l80 -247h-154l-59 196h-31v-196h-147zM612 928h27q57 0 57 47t-57 47h-27v-94z" />
<glyph unicode="&#xaf;" horiz-adv-x="759" d="M102 1194v240h555v-240h-555z" />
<glyph unicode="&#xb0;" d="M102 1305q0 120 84.5 204t204.5 84t204.5 -84t84.5 -204t-84.5 -204.5t-204.5 -84.5t-204.5 84.5t-84.5 204.5zM317 1305q0 -31 21.5 -52.5t52.5 -21.5t52.5 21.5t21.5 52.5t-21.5 52t-52.5 21t-52.5 -21t-21.5 -52z" />
<glyph unicode="&#xb1;" horiz-adv-x="1181" d="M102 82v313h977v-313h-977zM102 631v313h322v143h334v-143h321v-313h-321v-144h-332v144h-324z" />
<glyph unicode="&#xb4;" horiz-adv-x="647" d="M121 1122l112 351h293l-198 -351h-207z" />
<glyph unicode="&#xb6;" horiz-adv-x="1441" d="M45 934v196q0 121 89 212.5t214 91.5h1045v-312h-78v-1456h-330v1456h-115v-1456h-329v965h-193q-128 0 -215.5 87t-87.5 216z" />
<glyph unicode="&#xb7;" horiz-adv-x="493" d="M102 610v285h289v-285h-289z" />
<glyph unicode="&#xb8;" horiz-adv-x="526" d="M102 -170h23q47 4 63.5 34t18.5 97v39l217 6v-47q-3 -172 -66 -243.5t-229 -75.5h-27v190z" />
<glyph unicode="&#xba;" horiz-adv-x="776" d="M47 344v338q0 79 20.5 142.5t54 103t78.5 66t91.5 37.5t95.5 11q63 0 120 -18t108.5 -57.5t82.5 -112.5t31 -172v-338q0 -99 -31 -172t-82.5 -112.5t-108.5 -57.5t-120 -18q-49 0 -95.5 11t-91.5 37.5t-78.5 66t-54 103t-20.5 142.5zM315 479q2 -155 15 -204.5t59 -49.5 q44 0 59 52t13 202v68q0 148 -16 201t-58 53q-44 0 -58 -51t-14 -203v-68z" />
<glyph unicode="&#xbb;" horiz-adv-x="931" d="M102 74v315l160 141l-160 144v315l330 -301v-313zM500 74v315l159 141l-159 144v315l329 -301v-313z" />
<glyph unicode="&#xbc;" horiz-adv-x="1368" d="M68 1251v183h262v-693h-199v510h-63zM190 0l568 1434h243l-567 -1434h-244zM774 100v203l98 389h201l-96 -411h88v237h199v-237h36v-181h-36v-98h-199v98h-291z" />
<glyph unicode="&#xbd;" horiz-adv-x="1318" d="M68 1251v183h264v-693h-201v510h-63zM195 0l565 1434h244l-568 -1434h-241zM770 451v6q1 65 23 113t58 74t75.5 38t83.5 12l12 2q100 -2 165 -54.5t68 -164.5v-8q0 -54 -25 -100t-55.5 -72.5t-69.5 -59.5t-56 -55h200v-180h-469v82q0 53 15.5 96.5t39.5 72.5t53.5 53 t59.5 42.5t54 35.5t39.5 38t15.5 45q0 48 -39 51h-4q-22 0 -32 -16t-13 -51h-199z" />
<glyph unicode="&#xbe;" horiz-adv-x="1536" d="M63 1229v6q3 106 69 160.5t161 54.5l16 2q100 -2 163.5 -50.5t64.5 -158.5v-10q0 -48 -18 -85t-42 -48q25 -14 43 -53t19 -89v-8q-3 -205 -232 -209h-12q-96 0 -161 52.5t-68 164.5v5h184q3 -36 41 -39h8q17 0 28 8t13 22v7q0 45 -64 45h-57v184h57q59 0 62 37v6 q0 14 -11 24.5t-30 10.5h-6q-38 0 -41 -39h-187zM365 2l567 1434h244l-568 -1434h-243zM946 104v201l98 389l201 2l-96 -411h88v237h199v-237h37v-181h-37v-100h-199v100h-291z" />
<glyph unicode="&#xbf;" horiz-adv-x="1050" d="M102 111v4q0 81 19 141.5t49 96.5t66 63t72 49t65.5 47.5t48 66t18.5 95.5h267q0 -87 -15 -153t-39 -105t-53.5 -68t-58.5 -50.5t-53 -43.5t-39 -55.5t-15 -79.5q0 -61 23.5 -101.5t66.5 -40.5h6q78 5 88 173h330v-11q-2 -103 -27 -184.5t-64.5 -134t-93 -88 t-109.5 -50.5t-117 -16h-15q-62 0 -119.5 14t-113 47.5t-96.5 83t-66 127t-25 173.5zM428 819v285h289v-285h-289z" />
<glyph unicode="&#xc0;" horiz-adv-x="1024" d="M47 0l260 1434h414l262 -1434h-321l-48 279h-198l-47 -279h-322zM311 1884h293l113 -350h-207zM449 598h131l-66 475z" />
<glyph unicode="&#xc1;" horiz-adv-x="1024" d="M47 0l260 1434h414l262 -1434h-321l-48 279h-198l-47 -279h-322zM338 1532l113 350h292l-198 -350h-207zM449 598h131l-66 475z" />
<glyph unicode="&#xc2;" horiz-adv-x="1024" d="M45 0l260 1434h414l262 -1434h-322l-47 279h-198l-47 -279h-322zM221 1528l150 327h284l150 -325h-191l-100 108l-102 -110h-191zM446 598h132l-66 475z" />
<glyph unicode="&#xc3;" horiz-adv-x="1024" d="M47 6l260 1434h414l262 -1434h-321l-48 279h-198l-47 -279h-322zM193 1536q0 65 10 120t32.5 102t62.5 73.5t95 26.5q37 0 65 -11.5t72 -40.5q45 -34 80 -20q33 9 33 67l197 7q0 -65 -10.5 -120t-32.5 -102t-62.5 -73.5t-95.5 -26.5q-37 0 -65.5 11t-71.5 40 q-38 26 -72 23q-45 -6 -45 -76h-192zM449 604h131l-66 475z" />
<glyph unicode="&#xc4;" horiz-adv-x="1024" d="M47 0l260 1434h414l262 -1434h-321l-48 279h-198l-47 -279h-322zM209 1583v260h264v-260h-264zM449 598h131l-66 475zM555 1583v260h264v-260h-264z" />
<glyph unicode="&#xc5;" horiz-adv-x="1024" d="M45 2l260 1434h414l262 -1434h-322l-47 279h-198l-47 -279h-322zM279 1735q0 97 68.5 166t166.5 69t168 -69t70 -166q0 -98 -70 -168t-168 -70t-166.5 69.5t-68.5 168.5zM446 600h132l-66 475zM463 1737q0 -22 14.5 -36.5t36.5 -14.5t36.5 14.5t14.5 36.5 q0 20 -14.5 34.5t-36.5 14.5t-36.5 -14.5t-14.5 -34.5z" />
<glyph unicode="&#xc6;" horiz-adv-x="1230" d="M72 0l260 1434l825 -2v-312h-299v-243h279v-312h-279v-254h299v-311h-620v279h-97l-47 -279h-321zM473 596h64v463z" />
<glyph unicode="&#xc7;" horiz-adv-x="921" d="M53 952q0 110 24.5 197t64.5 142t96 91t114 51t123 15q63 0 119.5 -14t111 -49.5t94.5 -89.5t64 -139.5t25 -194.5v-48h-322v39q-3 187 -92 187q-50 0 -71 -48.5t-21 -148.5v-453q0 -101 21 -149.5t71 -48.5q88 0 94 186v41h322v-49q-1 -200 -75.5 -313t-194.5 -152v-39 q-1 -89 -14 -147t-44.5 -99.5t-85.5 -61t-137 -22.5h-41v191l39 4q37 7 51.5 35.5t16.5 85.5v39l-33 6q-66 15 -120.5 48t-100 89t-71.5 144.5t-26 201.5z" />
<glyph unicode="&#xc8;" horiz-adv-x="708" d="M59 0v1434l621 -2v-312h-299v-243h278v-312h-278v-254h299v-311h-621zM154 1884h292l113 -350h-207z" />
<glyph unicode="&#xc9;" horiz-adv-x="708" d="M59 0v1434l621 -2v-312h-299v-243h278v-312h-278v-254h299v-311h-621zM154 1532l112 350h293l-199 -350h-206z" />
<glyph unicode="&#xca;" horiz-adv-x="708" d="M59 0v1434l621 -2v-312h-299v-243h278v-312h-278v-254h299v-311h-621zM63 1528l150 327h285l149 -325h-190l-101 108l-102 -110h-191z" />
<glyph unicode="&#xcb;" horiz-adv-x="708" d="M51 1583v260h264v-260h-264zM59 0v1434l621 -2v-312h-299v-243h278v-312h-278v-254h299v-311h-621zM397 1583v260h265v-260h-265z" />
<glyph unicode="&#xcc;" horiz-adv-x="448" d="M23 1884h292l113 -350h-207zM59 0v1434h332v-1434h-332z" />
<glyph unicode="&#xcd;" horiz-adv-x="448" d="M23 1532l112 350h293l-199 -350h-206zM59 0v1434h332v-1434h-332z" />
<glyph unicode="&#xce;" horiz-adv-x="448" d="M-68 1528l150 327h285l149 -325h-190l-101 108l-102 -110h-191zM59 0v1434h332v-1434h-332z" />
<glyph unicode="&#xcf;" horiz-adv-x="448" d="M-80 1583v260h264v-260h-264zM59 0v1434h332v-1434h-332zM266 1583v260h264v-260h-264z" />
<glyph unicode="&#xd0;" horiz-adv-x="933" d="M-27 539v313h86v582l404 -2q65 0 121 -13t112 -47.5t95 -88.5t63.5 -143t24.5 -204v-442q0 -115 -24.5 -204t-63.5 -143t-95 -88.5t-112 -47.5t-121 -13h-404v541h-86zM379 309h84q94 0 94 199v416q0 196 -94 196h-84v-270h100v-313h-100v-228z" />
<glyph unicode="&#xd1;" horiz-adv-x="1015" d="M59 6v1434h316l280 -695v695h312v-1434h-316l-280 694v-694h-312zM188 1536q0 65 10.5 120t32.5 102t62.5 73.5t95.5 26.5q37 0 65 -11.5t72 -40.5q45 -34 80 -20q33 9 33 67l197 7q0 -65 -10.5 -120t-32.5 -102t-62.5 -73.5t-95.5 -26.5q-37 0 -65.5 11t-71.5 40 q-38 26 -72 23q-45 -6 -45 -76h-193z" />
<glyph unicode="&#xd2;" horiz-adv-x="952" d="M53 479v477q0 110 24.5 197t64.5 142t96 91t114 51t123 15q64 0 122 -14.5t114 -50.5t97 -91t66 -142.5t25 -197.5v-477q0 -110 -25 -197t-66 -142t-97 -91t-114 -50.5t-122 -14.5q-82 0 -153.5 25t-133.5 79.5t-98.5 154.5t-36.5 236zM274 1884h293l113 -350h-207z M385 494q0 -101 21 -150t71 -49q94 0 94 199v452q0 197 -94 197q-50 0 -71 -48.5t-21 -148.5v-452z" />
<glyph unicode="&#xd3;" horiz-adv-x="952" d="M53 479v477q0 110 24.5 197t64.5 142t96 91t114 51t123 15q64 0 122 -14.5t114 -50.5t97 -91t66 -142.5t25 -197.5v-477q0 -110 -25 -197t-66 -142t-97 -91t-114 -50.5t-122 -14.5q-82 0 -153.5 25t-133.5 79.5t-98.5 154.5t-36.5 236zM274 1532l113 350h293l-199 -350 h-207zM385 494q0 -101 21 -150t71 -49q94 0 94 199v452q0 197 -94 197q-50 0 -71 -48.5t-21 -148.5v-452z" />
<glyph unicode="&#xd4;" horiz-adv-x="952" d="M51 479v477q0 110 24.5 197t64.5 142t96 91t114 51t123 15q64 0 122 -14.5t114 -50.5t97 -91t66 -142.5t25 -197.5v-477q0 -110 -25 -197t-66 -142t-97 -91t-114 -50.5t-122 -14.5q-82 0 -153.5 25t-133.5 79.5t-98.5 154.5t-36.5 236zM184 1528l150 327h284l150 -325 h-190l-101 108l-102 -110h-191zM383 494q0 -101 21 -150t71 -49q94 0 94 199v452q0 197 -94 197q-50 0 -71 -48.5t-21 -148.5v-452z" />
<glyph unicode="&#xd5;" horiz-adv-x="952" d="M55 481v477q0 110 24.5 197t64.5 142t96 91t114 51t123 15q64 0 122 -14.5t114 -50.5t97 -91t66 -142.5t25 -197.5v-477q0 -110 -25 -197t-66 -142t-97 -91t-114 -50.5t-122 -14.5q-82 0 -153.5 25t-133.5 79.5t-98.5 154.5t-36.5 236zM158 1532q0 65 10 120t32.5 101.5 t62.5 73t95 26.5q38 0 66.5 -11.5t71.5 -39.5q45 -32 79 -18q33 9 33 69l197 2q0 -88 -17.5 -157t-64.5 -116.5t-119 -47.5q-38 0 -66.5 10.5t-70.5 38.5q-38 26 -72 23q-45 -6 -45 -74h-192zM387 496q0 -101 21 -150t71 -49q94 0 94 199v452q0 197 -94 197q-50 0 -71 -48.5 t-21 -148.5v-452z" />
<glyph unicode="&#xd6;" horiz-adv-x="952" d="M53 479v477q0 110 24.5 197t64.5 142t96 91t114 51t123 15q64 0 122 -14.5t114 -50.5t97 -91t66 -142.5t25 -197.5v-477q0 -110 -25 -197t-66 -142t-97 -91t-114 -50.5t-122 -14.5q-82 0 -153.5 25t-133.5 79.5t-98.5 154.5t-36.5 236zM172 1583v260h264v-260h-264z M385 494q0 -101 21 -150t71 -49q94 0 94 199v452q0 197 -94 197q-50 0 -71 -48.5t-21 -148.5v-452zM518 1583v260h264v-260h-264z" />
<glyph unicode="&#xd7;" horiz-adv-x="1114" d="M102 303l230 229l-230 228l236 235l227 -227l230 227l221 -221l-228 -227l228 -228l-236 -235l-227 227l-229 -229z" />
<glyph unicode="&#xd8;" horiz-adv-x="952" d="M51 481v477q0 110 24.5 197t64.5 142t96 91t114 51t123 15q73 0 137 -20l33 102h195l-68 -199q125 -132 125 -379v-477q0 -110 -25 -197t-66 -142t-97 -91t-114 -50.5t-122 -14.5q-69 0 -133 18l-35 -104h-194l65 200q-123 130 -123 381zM379 737l129 398q-13 8 -37 8 q-50 0 -71 -48.5t-21 -148.5v-209zM436 305q13 -8 37 -8q94 0 94 199v219z" />
<glyph unicode="&#xd9;" horiz-adv-x="940" d="M57 461q0 -110 24 -195t62.5 -137.5t93.5 -86.5t112 -47t122 -13q64 0 120.5 13t112 46.5t95 86t64 138t24.5 195.5v973h-322v-959q0 -96 -22 -138t-72 -42q-51 0 -71.5 41t-20.5 139v959h-322v-973zM268 1884h293l113 -350h-207z" />
<glyph unicode="&#xda;" horiz-adv-x="940" d="M57 461q0 -110 24 -195t62.5 -137.5t93.5 -86.5t112 -47t122 -13q64 0 120.5 13t112 46.5t95 86t64 138t24.5 195.5v973h-322v-959q0 -96 -22 -138t-72 -42q-51 0 -71.5 41t-20.5 139v959h-322v-973zM268 1532l113 350h293l-199 -350h-207z" />
<glyph unicode="&#xdb;" horiz-adv-x="940" d="M59 461q0 -110 24 -195t62.5 -137.5t93.5 -86.5t112 -47t122 -13q64 0 120.5 13t112 46.5t95 86t64 138t24.5 195.5v973h-322v-959q0 -96 -22 -138t-72 -42q-51 0 -71.5 41t-20.5 139v959h-322v-973zM180 1528l150 327h284l150 -325h-191l-100 108l-102 -110h-191z" />
<glyph unicode="&#xdc;" horiz-adv-x="940" d="M57 461q0 -110 24 -195t62.5 -137.5t93.5 -86.5t112 -47t122 -13q64 0 120.5 13t112 46.5t95 86t64 138t24.5 195.5v973h-322v-959q0 -96 -22 -138t-72 -42q-51 0 -71.5 41t-20.5 139v959h-322v-973zM166 1583v260h264v-260h-264zM512 1583v260h264v-260h-264z" />
<glyph unicode="&#xdd;" horiz-adv-x="1071" d="M43 1434h334l158 -523l159 523h332l-326 -891v-543h-331v543zM334 1532l112 350h293l-198 -350h-207z" />
<glyph unicode="&#xde;" horiz-adv-x="909" d="M59 0v1436l322 2v-170h45q67 -3 127 -17t117 -45t97.5 -75.5t65.5 -113.5t25 -155v-96q0 -84 -25 -152.5t-65.5 -113t-97.5 -76t-117 -46t-127 -18.5h-45v-360h-322zM381 672h55q45 0 77 33t32 104v14q0 71 -31.5 104.5t-77.5 33.5h-55v-289z" />
<glyph unicode="&#xdf;" horiz-adv-x="1150" d="M51 0v977q0 462 514 473l33 6q109 0 199.5 -24.5t162 -74.5t113 -135t45.5 -198v-29q0 -87 -35.5 -159.5t-83.5 -98.5q52 -26 87.5 -101t35.5 -171v-19q-2 -99 -29.5 -177t-71.5 -127t-105.5 -80.5t-126 -44.5t-138.5 -13h-205v313h205q135 0 142 115v19q0 54 -34 90.5 t-110 36.5h-96v315h90q134 0 141 106v15q0 125 -188 125h-27q-179 -6 -188 -138v-1001h-330z" />
<glyph unicode="&#xe0;" d="M45 344v336q0 98 23.5 171t63 112.5t83 58t92.5 18.5q131 0 201 -88l37 70h184v-1024h-184l-35 76q-69 -90 -203 -90q-49 0 -92.5 18.5t-83 58t-63 112.5t-23.5 171zM188 1475h293l113 -351h-207zM313 477q2 -153 16 -203.5t60 -50.5q44 0 58 51.5t12 202.5v68 q0 149 -15 201.5t-57 52.5q-44 0 -59 -51.5t-15 -202.5v-68z" />
<glyph unicode="&#xe1;" d="M47 344v338q0 98 23.5 171t63 112.5t83 58t92.5 18.5q131 0 201 -88l37 70l184 -2v-1024h-184l-35 76q-69 -90 -203 -90q-49 0 -92.5 18.5t-83 58t-63 112.5t-23.5 171zM190 1122l113 351h293l-199 -351h-207zM315 477q2 -153 16 -203.5t60 -50.5q44 0 58 51.5t12 202.5 v68q0 149 -15 201.5t-57 52.5q-44 0 -59 -51.5t-15 -202.5v-68z" />
<glyph unicode="&#xe2;" d="M47 344v338q0 98 23.5 171t63 112.5t83 58t92.5 18.5q131 0 201 -88l37 70l184 -2v-1024h-184l-35 76q-69 -90 -203 -90q-49 0 -92.5 18.5t-83 58t-63 112.5t-23.5 171zM100 1118l150 328h285l149 -326h-190l-101 109l-102 -111h-191zM315 477q2 -153 16 -203.5t60 -50.5 q44 0 58 51.5t12 202.5v68q0 149 -15 201.5t-57 52.5q-44 0 -59 -51.5t-15 -202.5v-68z" />
<glyph unicode="&#xe3;" d="M51 346v338q0 98 23.5 171t63 112.5t83 58t92.5 18.5q131 0 201 -88l37 70l184 -2v-1024h-184l-35 76q-69 -90 -203 -90q-49 0 -92.5 18.5t-83 58t-63 112.5t-23.5 171zM74 1124q0 65 10 120t32.5 102t62.5 73.5t95 26.5q38 0 66.5 -11.5t71.5 -39.5q46 -32 80 -19 q32 8 32 70l197 2q0 -65 -10.5 -120t-32.5 -102t-62.5 -73.5t-95.5 -26.5q-37 0 -66 10.5t-71 39.5q-37 26 -72 22q-45 -6 -45 -74h-192zM319 479q2 -153 16 -203.5t60 -50.5q44 0 58 51.5t12 202.5v68q0 149 -15 201.5t-57 52.5q-44 0 -59 -51.5t-15 -202.5v-68z" />
<glyph unicode="&#xe4;" d="M49 344v338q0 98 23.5 171t63 112.5t83 58t92.5 18.5q131 0 201 -88l37 70l184 -2v-1024h-184l-35 76q-69 -90 -203 -90q-49 0 -92.5 18.5t-83 58t-63 112.5t-23.5 171zM88 1174v260h264v-260h-264zM317 477q2 -153 16 -203.5t60 -50.5q44 0 58 51.5t12 202.5v68 q0 149 -15 201.5t-57 52.5q-44 0 -59 -51.5t-15 -202.5v-68zM434 1174v260h264v-260h-264z" />
<glyph unicode="&#xe5;" d="M45 346v338q0 98 23.5 171t63 112.5t83 58t92.5 18.5q131 0 201 -88l37 70l184 -2v-1024h-184l-35 76q-69 -90 -203 -90q-49 0 -92.5 18.5t-83 58t-63 112.5t-23.5 171zM156 1325q0 97 68.5 166.5t166.5 69.5t168 -69.5t70 -166.5q0 -98 -70 -168t-168 -70t-166.5 69.5 t-68.5 168.5zM313 479q2 -153 16 -203.5t60 -50.5q44 0 58 51.5t12 202.5v68q0 149 -15 201.5t-57 52.5q-44 0 -59 -51.5t-15 -202.5v-68zM340 1327q0 -22 14.5 -36.5t36.5 -14.5t36.5 14.5t14.5 36.5q0 20 -14.5 34.5t-36.5 14.5t-36.5 -14.5t-14.5 -34.5z" />
<glyph unicode="&#xe6;" horiz-adv-x="1298" d="M47 344l2 338q0 98 23.5 171t63 112.5t83 58t92.5 18.5q131 0 201 -88l37 70h184v-35q72 53 180 53q63 0 120 -18t108.5 -57.5t82.5 -112.5t31 -172v-262h-413v-33q0 -92 16.5 -127t56.5 -35q34 0 51.5 26t18.5 89h268q0 -98 -31 -170.5t-82.5 -112t-108.5 -57.5 t-120 -18q-108 0 -180 53v-37h-184l-35 76q-69 -90 -203 -90q-49 0 -92.5 18.5t-83 58t-63 112.5t-23.5 171zM317 479q2 -153 16 -203.5t60 -50.5q44 0 58 51.5t12 202.5v68q0 149 -15 201.5t-57 52.5q-44 0 -59 -51.5t-15 -202.5v-68zM840 616h145v39q-1 79 -19.5 111.5 t-52.5 32.5q-37 0 -54.5 -31t-18.5 -113v-39z" />
<glyph unicode="&#xe7;" horiz-adv-x="765" d="M47 344l4 344q0 98 30.5 171t81.5 113t108 58.5t120 18.5t119 -18.5t106 -57.5t80 -111.5t31 -169.5v-57h-262q-1 95 -19 132.5t-55 37.5q-44 0 -58 -51t-14 -203v-68q2 -155 15 -204.5t59 -49.5q39 0 55.5 37t16.5 133h260v-55q0 -128 -49 -208.5t-129 -117.5v-51 q-1 -90 -14.5 -149t-47.5 -100t-90.5 -59.5t-144.5 -20.5h-25v190h23q47 4 63.5 33.5t18.5 95.5v35q-15 0 -47 8q-103 26 -169.5 110t-66.5 234z" />
<glyph unicode="&#xe8;" horiz-adv-x="774" d="M47 344l2 340q0 79 20.5 142.5t54 103t78.5 66t91.5 37.5t95.5 11q63 0 120 -18t108.5 -57.5t82.5 -112.5t31 -172v-262h-414v-33q0 -92 16.5 -127t57.5 -35q34 0 51.5 26t18.5 89h268q0 -98 -31 -170.5t-82.5 -112t-108.5 -57.5t-120 -18q-49 0 -95.5 11t-91.5 37.5 t-78.5 66t-54 103t-20.5 142.5zM184 1475h293l113 -351h-207zM317 618h146v39q-1 79 -19.5 111.5t-52.5 32.5q-37 0 -55 -31.5t-19 -112.5v-39z" />
<glyph unicode="&#xe9;" horiz-adv-x="774" d="M47 344l2 340q0 79 20.5 142.5t54 103t78.5 66t91.5 37.5t95.5 11q63 0 120 -18t108.5 -57.5t82.5 -112.5t31 -172v-262h-414v-33q0 -92 16.5 -127t57.5 -35q34 0 51.5 26t18.5 89h268q0 -98 -31 -170.5t-82.5 -112t-108.5 -57.5t-120 -18q-49 0 -95.5 11t-91.5 37.5 t-78.5 66t-54 103t-20.5 142.5zM184 1122l113 351h293l-199 -351h-207zM317 618h146v39q-1 79 -19.5 111.5t-52.5 32.5q-37 0 -55 -31.5t-19 -112.5v-39z" />
<glyph unicode="&#xea;" horiz-adv-x="774" d="M45 344l2 340q0 79 20.5 142.5t54 103t78.5 66t91.5 37.5t95.5 11q63 0 120 -18t108.5 -57.5t82.5 -112.5t31 -172v-262h-414v-33q0 -92 16.5 -127t57.5 -35q34 0 51.5 26t18.5 89h268q0 -98 -31 -170.5t-82.5 -112t-108.5 -57.5t-120 -18q-49 0 -95.5 11t-91.5 37.5 t-78.5 66t-54 103t-20.5 142.5zM94 1118l150 328h284l150 -326h-191l-100 109l-102 -111h-191zM315 618h146v39q-1 79 -19.5 111.5t-52.5 32.5q-37 0 -55 -31.5t-19 -112.5v-39z" />
<glyph unicode="&#xeb;" horiz-adv-x="774" d="M47 344l2 340q0 79 20.5 142.5t54 103t78.5 66t91.5 37.5t95.5 11q63 0 120 -18t108.5 -57.5t82.5 -112.5t31 -172v-262h-414v-33q0 -92 16.5 -127t57.5 -35q34 0 51.5 26t18.5 89h268q0 -98 -31 -170.5t-82.5 -112t-108.5 -57.5t-120 -18q-49 0 -95.5 11t-91.5 37.5 t-78.5 66t-54 103t-20.5 142.5zM82 1174v260h264v-260h-264zM317 618h146v39q-1 79 -19.5 111.5t-52.5 32.5q-37 0 -55 -31.5t-19 -112.5v-39zM428 1174v260h264v-260h-264z" />
<glyph unicode="&#xec;" horiz-adv-x="552" d="M88 1475h293l113 -351h-207zM221 0v1024h271v-1024h-271z" />
<glyph unicode="&#xed;" horiz-adv-x="538" d="M51 1122l113 351h293l-199 -351h-207zM66 0v1024h270v-1024h-270z" />
<glyph unicode="&#xee;" horiz-adv-x="641" d="M29 1118l149 328h285l149 -326h-190l-100 109l-103 -111h-190zM193 0v1024h270v-1024h-270z" />
<glyph unicode="&#xef;" horiz-adv-x="708" d="M51 1174v260h264v-260h-264zM233 0v1024h271v-1024h-271zM397 1174v260h265v-260h-265z" />
<glyph unicode="&#xf0;" horiz-adv-x="956" d="M45 342v338q0 99 31 172t82.5 112.5t108.5 57.5t120 18q45 0 74 -26v55q-1 77 -18.5 107t-55.5 30q-32 0 -48 -26t-22 -90h-262v22q3 92 33.5 160.5t80 106t104.5 54.5t116 17q145 0 236 -84l114 68l127 -205l-145 -88q6 -21 6 -51v-748q-1 -79 -21.5 -142t-54 -103 t-78.5 -66.5t-91 -37.5t-95 -11q-63 0 -120 18t-108.5 57.5t-82.5 112.5t-31 172zM313 475q-2 -150 13 -202t59 -52q46 0 59 49.5t15 204.5v68q0 151 -14 202.5t-58 51.5q-42 0 -58 -53t-16 -201v-68z" />
<glyph unicode="&#xf1;" horiz-adv-x="784" d="M55 2v1024h185l39 -78q75 96 206 96q48 0 91 -18.5t81 -58t60 -112.5t22 -171v-682h-268v547q0 151 -15 202.5t-59 51.5q-39 0 -56 -38.5t-17 -139.5v-623h-269zM72 1124q0 65 10 120t32.5 102t62.5 73.5t95 26.5q38 0 66.5 -11.5t71.5 -39.5q46 -32 79 -19q33 9 33 70 l197 2q0 -65 -10.5 -120t-32.5 -102t-62.5 -73.5t-95.5 -26.5q-37 0 -66 10.5t-71 39.5q-37 26 -72 22q-45 -6 -45 -74h-192z" />
<glyph unicode="&#xf2;" horiz-adv-x="776" d="M47 344v338q0 79 20.5 142.5t54 103t78.5 66t91.5 37.5t95.5 11q63 0 120 -18t108.5 -57.5t82.5 -112.5t31 -172v-338q0 -99 -31 -172t-82.5 -112.5t-108.5 -57.5t-120 -18q-49 0 -95.5 11t-91.5 37.5t-78.5 66t-54 103t-20.5 142.5zM186 1475h293l113 -351h-207z M315 479q2 -155 15 -204.5t59 -49.5q44 0 59 52t13 202v68q0 148 -16 201t-58 53q-44 0 -58 -51t-14 -203v-68z" />
<glyph unicode="&#xf3;" horiz-adv-x="776" d="M47 344v338q0 79 20.5 142.5t54 103t78.5 66t91.5 37.5t95.5 11q63 0 120 -18t108.5 -57.5t82.5 -112.5t31 -172v-338q0 -99 -31 -172t-82.5 -112.5t-108.5 -57.5t-120 -18q-49 0 -95.5 11t-91.5 37.5t-78.5 66t-54 103t-20.5 142.5zM186 1122l113 351h293l-199 -351 h-207zM315 479q2 -155 15 -204.5t59 -49.5q44 0 59 52t13 202v68q0 148 -16 201t-58 53q-44 0 -58 -51t-14 -203v-68z" />
<glyph unicode="&#xf4;" horiz-adv-x="776" d="M47 344v338q0 79 20.5 142.5t54 103t78.5 66t91.5 37.5t95.5 11q63 0 120 -18t108.5 -57.5t82.5 -112.5t31 -172v-338q0 -99 -31 -172t-82.5 -112.5t-108.5 -57.5t-120 -18q-49 0 -95.5 11t-91.5 37.5t-78.5 66t-54 103t-20.5 142.5zM98 1118l150 328h284l150 -326h-190 l-101 109l-102 -111h-191zM315 479q2 -155 15 -204.5t59 -49.5q44 0 59 52t13 202v68q0 148 -16 201t-58 53q-44 0 -58 -51t-14 -203v-68z" />
<glyph unicode="&#xf5;" horiz-adv-x="776" d="M49 346v338q0 79 20.5 142.5t54 103t78.5 66t91.5 37.5t95.5 11q63 0 120 -18t108.5 -57.5t82.5 -112.5t31 -172v-338q0 -99 -31 -172t-82.5 -112.5t-108.5 -57.5t-120 -18q-49 0 -95.5 11t-91.5 37.5t-78.5 66t-54 103t-20.5 142.5zM68 1124q0 65 10 120t32.5 102 t62.5 73.5t95 26.5q38 0 66.5 -11.5t71.5 -39.5q46 -32 79 -19q33 9 33 70l197 2q0 -65 -10.5 -120t-32.5 -102t-62.5 -73.5t-95.5 -26.5q-37 0 -66 10.5t-71 39.5q-37 26 -72 22q-45 -6 -45 -74h-192zM317 481q2 -155 15 -204.5t59 -49.5q44 0 59 52t13 202v68 q0 148 -16 201t-58 53q-44 0 -58 -51t-14 -203v-68z" />
<glyph unicode="&#xf6;" horiz-adv-x="776" d="M47 344v338q0 79 20.5 142.5t54 103t78.5 66t91.5 37.5t95.5 11q63 0 120 -18t108.5 -57.5t82.5 -112.5t31 -172v-338q0 -99 -31 -172t-82.5 -112.5t-108.5 -57.5t-120 -18q-49 0 -95.5 11t-91.5 37.5t-78.5 66t-54 103t-20.5 142.5zM84 1174v260h264v-260h-264zM315 479 q2 -155 15 -204.5t59 -49.5q44 0 59 52t13 202v68q0 148 -16 201t-58 53q-44 0 -58 -51t-14 -203v-68zM430 1174v260h264v-260h-264z" />
<glyph unicode="&#xf7;" horiz-adv-x="1181" d="M102 387v313h977v-313h-977zM436 782v285h289v-285h-289zM438 20v285h289v-285h-289z" />
<glyph unicode="&#xf8;" horiz-adv-x="872" d="M109 346v338q0 79 20.5 142.5t54 103t78.5 66t91.5 37.5t95.5 11q47 0 96 -12l30 94h150l-51 -157q117 -95 117 -287v-338q0 -99 -31 -172t-82.5 -112.5t-108.5 -57.5t-120 -18q-49 0 -95 12l-30 -96h-148l51 157q-118 93 -118 289zM375 514l92 283q-6 2 -21 2 q-44 0 -57.5 -49.5t-13.5 -202.5v-33zM432 231q6 -2 19 -2q44 0 58.5 51t12.5 201v29z" />
<glyph unicode="&#xf9;" horiz-adv-x="780" d="M49 342v682h268v-547q0 -151 15 -202.5t59 -51.5q40 0 57 38.5t17 139.5v623h270v-1024h-184l-41 78q-75 -96 -207 -96q-48 0 -91 18.5t-81 58t-60 112.5t-22 171zM188 1475h293l113 -351h-207z" />
<glyph unicode="&#xfa;" horiz-adv-x="780" d="M49 342v682h268v-547q0 -151 15 -202.5t59 -51.5q40 0 57 38.5t17 139.5v623h270v-1024h-184l-41 78q-75 -96 -207 -96q-48 0 -91 18.5t-81 58t-60 112.5t-22 171zM188 1122l113 351h293l-199 -351h-207z" />
<glyph unicode="&#xfb;" horiz-adv-x="780" d="M47 342v682h268v-547q0 -151 15 -202.5t59 -51.5q40 0 57 38.5t17 139.5v623h270v-1024h-184l-41 78q-75 -96 -207 -96q-48 0 -91 18.5t-81 58t-60 112.5t-22 171zM98 1118l150 328h284l150 -326h-190l-101 109l-102 -111h-191z" />
<glyph unicode="&#xfc;" horiz-adv-x="780" d="M49 342v682h268v-547q0 -151 15 -202.5t59 -51.5q40 0 57 38.5t17 139.5v623h270v-1024h-184l-41 78q-75 -96 -207 -96q-48 0 -91 18.5t-81 58t-60 112.5t-22 171zM86 1174v260h264v-260h-264zM432 1174v260h264v-260h-264z" />
<glyph unicode="&#xfd;" horiz-adv-x="763" d="M41 362v664h268v-528q0 -151 15 -202.5t59 -51.5q28 0 43.5 22t22.5 76t8 156v528h268v-1022q0 -97 -30.5 -168.5t-81.5 -110.5t-108 -57t-120 -18q-44 0 -86.5 9t-84.5 30t-75 53t-57.5 82t-32.5 113h273q15 -41 63 -41q38 0 56 28t18 99v36q-63 -57 -164 -57 q-48 0 -91 18.5t-81 58t-60 112.5t-22 171zM180 1122l113 351h293l-199 -351h-207z" />
<glyph unicode="&#xfe;" horiz-adv-x="784" d="M53 -334v1768h269v-451q63 57 163 57q48 0 91 -18.5t81 -58t60 -112.5t22 -171v-338q0 -98 -22 -171t-60 -112.5t-81 -58t-91 -18.5q-100 0 -163 57v-373h-269zM324 477q0 -102 6.5 -156t21.5 -76t43 -22q44 0 59 51.5t15 202.5v68q-2 153 -16 203.5t-60 50.5 q-44 0 -57.5 -51.5t-11.5 -202.5v-68z" />
<glyph unicode="&#xff;" horiz-adv-x="763" d="M41 362v664h268v-528q0 -151 15 -202.5t59 -51.5q28 0 43.5 22t22.5 76t8 156v528h268v-1022q0 -97 -30.5 -168.5t-81.5 -110.5t-108 -57t-120 -18q-44 0 -86.5 9t-84.5 30t-75 53t-57.5 82t-32.5 113h273q15 -41 63 -41q38 0 56 28t18 99v36q-63 -57 -164 -57 q-48 0 -91 18.5t-81 58t-60 112.5t-22 171zM78 1174v260h264v-260h-264zM424 1174v260h264v-260h-264z" />
<glyph unicode="&#x152;" horiz-adv-x="1335" d="M47 479v475q0 110 24.5 197t64.5 142t96 91t114 51t123 15q122 0 199 -61v43h620v-312h-299v-243h279v-312h-279v-254h299v-311h-620v45q-77 -61 -199 -61q-82 0 -153.5 25t-133.5 79.5t-98.5 154.5t-36.5 236zM379 492q0 -101 21 -150t71 -49q94 0 94 199v452 q0 197 -94 197q-50 0 -71 -48.5t-21 -148.5v-452z" />
<glyph unicode="&#x153;" horiz-adv-x="1277" d="M74 344l2 338q0 98 23.5 171t63 112.5t83 58t92.5 18.5q159 0 227 -122q89 122 266 122q63 0 120 -18t109 -57.5t83 -112.5t31 -172v-262h-414v-37q0 -89 16.5 -122.5t57.5 -33.5q34 0 51 25.5t18 89.5h268q0 -98 -31 -170.5t-82.5 -112t-108.5 -57.5t-120 -18 q-177 0 -266 122q-68 -122 -227 -122q-49 0 -92.5 18.5t-83 58t-63 112.5t-23.5 171zM344 479q2 -155 15 -204.5t59 -49.5q44 0 58.5 52t12.5 202v68q0 149 -15.5 201.5t-57.5 52.5q-44 0 -58 -51t-14 -203v-68zM760 664h141l2 41q-5 94 -72 94q-31 0 -49 -20.5t-22 -73.5 v-41z" />
<glyph unicode="&#x178;" horiz-adv-x="1071" d="M45 1434h334l158 -523l159 523h332l-326 -891v-543h-331v543zM231 1583v260h265v-260h-265zM578 1583v260h264v-260h-264z" />
<glyph unicode="&#x2c6;" horiz-adv-x="892" d="M156 1118l149 328h285l149 -326h-190l-100 109l-103 -111h-190z" />
<glyph unicode="&#x2dc;" d="M68 1120q0 65 10.5 120t33 102t62.5 73.5t94 26.5q37 0 66 -11t74 -40q44 -28 75 -19q39 9 39 72h195q0 -65 -10.5 -120t-33.5 -102t-63.5 -73.5t-95.5 -26.5q-36 0 -65 10.5t-72 38.5q-38 30 -74 23q-43 -9 -43 -74h-192z" />
<glyph unicode="&#x2000;" horiz-adv-x="985" />
<glyph unicode="&#x2001;" horiz-adv-x="1970" />
<glyph unicode="&#x2002;" horiz-adv-x="985" />
<glyph unicode="&#x2003;" horiz-adv-x="1970" />
<glyph unicode="&#x2004;" horiz-adv-x="656" />
<glyph unicode="&#x2005;" horiz-adv-x="492" />
<glyph unicode="&#x2006;" horiz-adv-x="328" />
<glyph unicode="&#x2007;" horiz-adv-x="328" />
<glyph unicode="&#x2008;" horiz-adv-x="246" />
<glyph unicode="&#x2009;" horiz-adv-x="394" />
<glyph unicode="&#x200a;" horiz-adv-x="109" />
<glyph unicode="&#x2010;" horiz-adv-x="712" d="M102 391v314h508v-314h-508z" />
<glyph unicode="&#x2011;" horiz-adv-x="712" d="M102 391v314h508v-314h-508z" />
<glyph unicode="&#x2012;" horiz-adv-x="712" d="M102 391v314h508v-314h-508z" />
<glyph unicode="&#x2013;" horiz-adv-x="966" d="M102 391v314h762v-314h-762z" />
<glyph unicode="&#x2014;" horiz-adv-x="1310" d="M102 391v314h1106v-314h-1106z" />
<glyph unicode="&#x2018;" horiz-adv-x="493" d="M102 856v285l103 293h112l-49 -293h123v-285h-289z" />
<glyph unicode="&#x2019;" horiz-adv-x="493" d="M102 1149v285h289v-285l-102 -293h-113l49 293h-123z" />
<glyph unicode="&#x201a;" horiz-adv-x="493" d="M102 0v285h289v-285l-102 -293h-113l49 293h-123z" />
<glyph unicode="&#x201c;" horiz-adv-x="933" d="M104 856v285l103 293h112l-49 -293h123v-285h-289zM545 856v285l102 293h113l-49 -293h123v-285h-289z" />
<glyph unicode="&#x201d;" horiz-adv-x="933" d="M102 1149v285h289v-285l-102 -293h-113l49 293h-123zM543 1149v285h288v-285l-102 -293h-113l50 293h-123z" />
<glyph unicode="&#x201e;" horiz-adv-x="493" d="M102 0v285h289v-285l-102 -293h-113l49 293h-123z" />
<glyph unicode="&#x2022;" horiz-adv-x="823" d="M45 594q0 151 107.5 257.5t259.5 106.5t259 -106.5t107 -257.5q0 -152 -107 -259.5t-259 -107.5t-259.5 107.5t-107.5 259.5z" />
<glyph unicode="&#x2026;" horiz-adv-x="1200" d="M102 0v285h289v-285h-289zM455 0v285h288v-285h-288zM807 0v285h289v-285h-289z" />
<glyph unicode="&#x202f;" horiz-adv-x="394" />
<glyph unicode="&#x2039;" horiz-adv-x="534" d="M102 375v315l330 301v-315l-160 -144l160 -141v-315z" />
<glyph unicode="&#x203a;" horiz-adv-x="534" d="M102 74v315l160 141l-160 144v315l330 -301v-313z" />
<glyph unicode="&#x205f;" horiz-adv-x="492" />
<glyph unicode="&#x20ac;" horiz-adv-x="1017" d="M45 567v125h105v53h-105v125h105l-5 88q0 110 24.5 197t64.5 142t96 91t114 51t123 15q63 0 119.5 -14.5t111 -49.5t94.5 -89.5t64 -140.5t25 -195v-47h-322v38q-3 187 -92 187q-50 0 -71 -48.5t-21 -148.5v-76h393l-125 -125h-266v-53h215l-125 -125h-88v-71 q0 -101 21 -150t71 -49q90 0 93 188v39h321v-49q-1 -109 -25 -195t-64 -140.5t-94.5 -89.5t-111 -49.5t-119.5 -14.5q-65 0 -123 14.5t-113.5 51t-95.5 91.5t-64.5 141.5t-24.5 196.5v86h-105z" />
<glyph unicode="&#x2122;" horiz-adv-x="1392" d="M31 1221l2 213h485v-213h-127v-619h-233v619h-127zM555 604v830h303l103 -379l102 379h299v-830h-234v385l-94 -336h-149l-97 336v-385h-233z" />
<glyph unicode="&#x25fc;" horiz-adv-x="1025" d="M0 0v1025h1025v-1025h-1025z" />
<glyph unicode="&#xfb01;" horiz-adv-x="985" d="M45 782v242h98v68q0 101 24 174t66.5 112t92.5 56.5t112 17.5h105v-242h-29q-58 0 -79 -33t-23 -120v-33h131v-242h-131v-782h-269v782h-98zM643 1147v264h289v-264h-289zM651 0v1024h271v-1024h-271z" />
<glyph unicode="&#xfb02;" horiz-adv-x="958" d="M45 782v242h98v68q0 101 24 174t66.5 112t92.5 56.5t112 17.5h105v-242h-29q-59 0 -79.5 -34t-22.5 -125v-27h131v-242h-131v-782h-269v782h-98zM643 0v1434h270v-1434h-270z" />
</font>
</defs>
</svg>
